<svg aria-hidden="true" style="position: absolute; width: 0; height: 0; overflow: hidden;" version="1.1" xmlns="http://www.w3.org/2000/svg" xmlns:xlink="http://www.w3.org/1999/xlink">
<defs>
<symbol id="icon-vector-mail" viewBox="0 0 43 32">
<path d="M37.333 0h-32c-2.2 0-3.981 1.8-3.981 4l-0.019 24c0 2.2 1.8 4 4 4h32c2.2 0 4-1.8 4-4v-24c0-2.2-1.8-4-4-4zM36.533 8.501l-14.139 8.837c-0.302 0.188-0.668 0.3-1.060 0.3s-0.758-0.112-1.069-0.305l0.009 0.005-14.141-8.84c-0.503-0.301-0.835-0.843-0.835-1.463 0-0.938 0.761-1.699 1.699-1.699 0.349 0 0.673 0.105 0.943 0.285l-0.006-0.004 13.4 8.381 13.4-8.381c0.264-0.176 0.588-0.282 0.937-0.282 0.938 0 1.699 0.761 1.699 1.699 0 0.62-0.332 1.162-0.828 1.459l-0.008 0.004z"></path>
</symbol>
<symbol id="icon-vector-phone" viewBox="0 0 32 32">
<path d="M28.864 21.822l-4.524-0.517c-0.124-0.015-0.267-0.024-0.413-0.024-0.98 0-1.867 0.398-2.509 1.041l-3.276 3.276c-5.081-2.621-9.119-6.659-11.671-11.59l-0.070-0.149 3.298-3.296c0.642-0.641 1.038-1.528 1.038-2.507 0-0.146-0.009-0.289-0.026-0.43l0.002 0.017-0.517-4.49c-0.213-1.784-1.717-3.153-3.541-3.153-0.001 0-0.003 0-0.004 0h-3.082c-2.014 0-3.687 1.674-3.562 3.687 0.943 15.212 13.11 27.362 28.305 28.308 2.014 0.123 3.687-1.551 3.687-3.564v-3.082c0-0.006 0-0.013 0-0.020 0-1.811-1.363-3.303-3.12-3.506l-0.016-0.002z"></path>
</symbol>
<symbol id="icon-icon-send-subscribe" viewBox="0 0 38 32">
<path fill="#fff" style="fill: var(--color1, #fff)" d="M38.4 0l-38.4 18 12.272 3.787 18.928-14.787-14.397 16.186 0.011 0.005-0.014-0.005v8.814l6.882-6.691 8.72 2.691 5.998-28z"></path>
</symbol>
<symbol id="icon-Vector-check" viewBox="0 0 40 32">
<path fill="white" style="" d="M33.784 1.020c0.659-0.637 1.558-1.030 2.548-1.030 2.007 0 3.637 1.611 3.668 3.611l0 0.003c0.001 0.028 0.001 0.061 0.001 0.095 0 0.965-0.368 1.844-0.972 2.504l0.003-0.003-19.576 24.616c-0.674 0.728-1.635 1.182-2.702 1.182-0.495 0-0.967-0.098-1.398-0.275l0.024 0.009c-0.477-0.197-0.884-0.473-1.224-0.816l-0-0-12.984-13.052c-0.724-0.677-1.175-1.638-1.175-2.705 0-0.501 0.1-0.98 0.28-1.416l-0.009 0.025c0.564-1.367 1.887-2.312 3.43-2.312 0.018 0 0.035 0 0.053 0l-0.003-0c1.038 0.019 1.967 0.467 2.622 1.174l0.002 0.002 10.276 10.328 17.040-21.832c0.032-0.039 0.065-0.074 0.1-0.108l-0.004-0z"></path>
</symbol>
<symbol id="icon-Vector-name" viewBox="0 0 32 32">
<path d="M16 16c4.418 0 8-3.582 8-8s-3.582-8-8-8v0c-4.418 0-8 3.582-8 8s3.582 8 8 8v0zM16 20c-5.339 0-16 2.68-16 8v2c0 1.099 0.901 2 2 2h28c1.099 0 2-0.901 2-2v-2c0-5.32-10.661-8-16-8z"></path>
</symbol>
</defs>
</svg>
