<svg aria-hidden="true" style="position:absolute;width:0;height:0" xmlns="http://www.w3.org/2000/svg" overflow="hidden">
    <defs>
    <symbol id="astraunut" viewBox="0 0 64 64">
        <path fill="#4D5AE5" d="M63.95 9.05a1.07 1.07 0 0 0-.86-.73l-3.82-.55-1.71-3.47c-.36-.73-1.56-.73-1.92 0l-1.7 3.47-3.83.55a1.07 1.07 0 0 0-.59 1.82l2.77 2.7-.66 3.8a1.07 1.07 0 0 0 1.55 1.13l3.42-1.8 3.42 1.8a1.07 1.07 0 0 0 1.55-1.13l-.66-3.8 2.77-2.7c.29-.28.4-.7.27-1.1Zm-4.93 2.65c-.25.25-.36.6-.3.95l.38 2.22-2-1.05a1.06 1.06 0 0 0-1 0l-2 1.05.38-2.22c.06-.35-.05-.7-.3-.95l-1.62-1.58 2.23-.32c.35-.05.65-.27.8-.59l1-2.02 1 2.02c.16.32.46.54.81.59l2.24.32-1.62 1.58Zm-6.75 29.34h-2.14v2.14h2.14v-2.14Zm0 4.27h-2.14v2.13h2.14v-2.13Zm2.13-2.13h-2.13v2.13h2.13v-2.13Zm-4.27 0H48v2.13h2.13v-2.13Zm-5.33 9.6h-2.13v2.13h2.13v-2.13Zm0 4.26h-2.13v2.14h2.13v-2.14Zm2.13-2.13H44.8v2.13h2.13v-2.13Zm-4.26 0h-2.14v2.13h2.14v-2.13ZM32 48.51h-2.13v2.13H32v-2.13Zm0 4.27h-2.13v2.13H32v-2.13Zm2.13-2.14H32v2.14h2.13v-2.14Zm-4.26 0h-2.14v2.14h2.14v-2.14Zm-18.14-38.4H9.6v2.14h2.13v-2.14Zm0 4.27H9.6v2.13h2.13v-2.13Zm2.14-2.13h-2.14v2.13h2.14v-2.13Zm-4.27 0H7.47v2.13H9.6v-2.13Z"/>
        <path fill="#2E2F42" d="M49.43 28.32a3.55 3.55 0 0 0-2.38-1.41 3.55 3.55 0 0 0-2.68.7l-2.5 1.92-3.8 2.84-2.71-1.08a13.87 13.87 0 0 0 8.23-12.64c0-7.65-6.25-13.87-13.93-13.87a13.91 13.91 0 0 0-13.92 13.87c0 2.77.83 5.34 2.24 7.51l-5.53-.05-.05.01c-.1 0-.21.03-.31.07l-.08.02c-.01 0-.03 0-.04.02L5.5 29.42l-3.78 1.82a3.56 3.56 0 0 0 3.55 6.18l2.77-1.47 4.53-2.34 2.71-.02L4.4 44.42 1.71 47.1a3.3 3.3 0 0 0 0 4.72 3.33 3.33 0 0 0 4.71 0l2.63-2.62 3.48-2.6 1.8 1.8-3.52 3.5-2.68 2.67a3.3 3.3 0 0 0 0 4.71 3.34 3.34 0 0 0 4.72 0l2.68-2.66 4.29-4.27 2.02-2-.01-.01.04-.03 10.34-11.32 6.94.99a1.01 1.01 0 0 0 .52-.07l.1-.04.12-.06 6.42-4.27c.03-.01.04-.04.06-.05.03-.02.06-.03.08-.06L49 33.05a3.56 3.56 0 0 0 .42-4.72ZM4.26 35.54c-.35.19-.74.22-1.12.1a1.43 1.43 0 0 1-.42-2.52l2.63-1.26.63 1.85.26.78-1.98 1.05Zm7-3.66-3.1 1.6L7.65 32l-.37-1.07 4.05-2-.07 2.96Zm30.2-13.24c0 1.84-.44 3.57-1.2 5.12l-8.37-3.8a3.72 3.72 0 0 0-1.57-2.77l2.92-9.72a11.76 11.76 0 0 1 8.21 11.17Zm-23.58 0A11.78 11.78 0 0 1 31.16 7.01l-2.87 9.51h-.11a3.74 3.74 0 0 0-3.75 3.72 3.74 3.74 0 0 0 6.98 1.85l7.73 3.5a11.78 11.78 0 0 1-21.26-6.95Zm11.9 1.6a1.6 1.6 0 0 1-3.22 0c0-.88.73-1.6 1.62-1.6.89 0 1.6.72 1.6 1.6ZM4.94 50.3a1.2 1.2 0 0 1-1.7 0 1.19 1.19 0 0 1 0-1.68l1.92-1.92 1.7 1.7-1.92 1.9Zm6.43 7.47c-.48.47-1.24.47-1.71 0a1.19 1.19 0 0 1 0-1.69l1.92-1.92.8.8.9.9-1.91 1.9Zm6.96-6.94-3.53 3.52-.8-.8-.9-.9 3.52-3.5c.08-.08.13-.18.18-.28l.06-.08c.03-.08.03-.17.05-.25l.02-.15a.65.65 0 0 0-.04-.2c0-.07 0-.14-.03-.2a1 1 0 0 0-.19-.28c-.02-.02-.02-.05-.05-.07l-3.21-3.2c-.04-.04-.08-.05-.12-.08a1.03 1.03 0 0 0-.17-.12 1 1 0 0 0-.19-.06 1.02 1.02 0 0 0-.2-.04h-.2l-.2.05a.99.99 0 0 0-.2.09c-.03.02-.08.03-.11.06l-3.55 2.64-1.8-1.8 4.8-4.76 8.72 8.57-1.86 1.84ZM31.96 36.8h-.1a1.04 1.04 0 0 0-.6.15l-.16.13-.08.06-9.4 10.29-8.65-8.52 5.67-5.63a1.07 1.07 0 0 0-.76-1.82l-4.44.02.05-3.21 6.21.05a13.9 13.9 0 0 0 12.52 3.96c.08.06.16.12.26.17l4.82 1.92.3 1.51.36 1.77-6-.85Zm8.08.35-.63-3.11 2.9-2.16.75 1 1.14 1.51-4.16 2.76Zm7.5-5.66-1.67 1.57-1.86-2.47 1.66-1.27a1.44 1.44 0 0 1 1.88 2.18Z"/>
        <path fill="#2E2F42" d="m27.2 37.09-4.28-4.27a1.07 1.07 0 0 0-1.5 0l-4.3 4.27a1.07 1.07 0 0 0 0 1.51l4.3 4.27a1.07 1.07 0 0 0 1.5 0l4.28-4.27a1.07 1.07 0 0 0 0-1.51Zm-5.03 3.52-2.78-2.77 2.78-2.76 2.77 2.76-2.77 2.77Zm12.16-30.47-.52 2.07c.15.04 3.48.9 3.48 4.3h2.13c0-4.03-3.33-5.93-5.1-6.37Zm5.09 8.5H37.3v2.14h2.13v-2.14Z"/>
    </symbol>
       <symbol id="computer" viewBox="0 0 64 64">
            <path fill="#4D5AE5" d="M29.85 29.93h2.13v9.6h-2.13v-9.6Zm8.53 4.27h2.13v5.32h-2.13V34.2Zm-17.06 3.2h2.13v2.12h-2.13V37.4Zm-6.39-1.07h2.13v3.2h-2.13v-3.2Z"/>
            <path fill="#2E2F42" d="M3.2 56.58h51.17a3.2 3.2 0 0 0 3.2-3.2v-4.26a3.2 3.2 0 0 0-3.2-3.2h-1.06V19.33l6.05-5.73a3.22 3.22 0 1 0-1.5-1.53l-4.55 4.33v-2.46a3.2 3.2 0 0 0-3.2-3.2H7.46a3.2 3.2 0 0 0-3.2 3.2v31.98H3.2a3.2 3.2 0 0 0-3.2 3.2v4.26a3.2 3.2 0 0 0 3.2 3.2Zm57.57-46.9a1.07 1.07 0 1 1 0 2.13 1.07 1.07 0 0 1 0-2.14ZM6.4 13.93c0-.6.47-1.07 1.06-1.07h42.65c.59 0 1.06.48 1.06 1.07v4.47l-2.13 2.03v-4.37c0-.59-.48-1.07-1.07-1.07H9.6c-.58 0-1.06.48-1.06 1.07v26.65c0 .6.48 1.07 1.06 1.07h38.38c.6 0 1.07-.48 1.07-1.07V23.37l2.13-2.02v24.57H6.4V13.94ZM16 27.8a3.2 3.2 0 1 0 2.2 5.5l3.71 1.85c.43.22.95.12 1.27-.24l7.88-8.86 7.75 5.8c.41.3 1 .28 1.37-.08l6.73-6.38v16.27H10.66V17.14h36.25v5.32l-7.54 7.14-7.81-5.85a1.07 1.07 0 0 0-1.44.14l-7.99 8.99-2.98-1.5.04-.38a3.2 3.2 0 0 0-3.2-3.2Zm1.06 3.2a1.07 1.07 0 1 1-2.13 0 1.07 1.07 0 0 1 2.13 0Zm6.4 17.05h10.66v1.07c0 .59-.48 1.07-1.07 1.07h-8.53c-.59 0-1.07-.48-1.07-1.07v-1.07ZM2.12 49.12c0-.59.48-1.07 1.07-1.07h18.12v1.07a3.2 3.2 0 0 0 3.2 3.2h8.53a3.2 3.2 0 0 0 3.2-3.2v-1.07h18.12c.59 0 1.07.48 1.07 1.07v4.26c0 .6-.48 1.07-1.07 1.07H3.2c-.59 0-1.07-.48-1.07-1.07v-4.26Z"/>
    </symbol>
        <symbol id="facebook" viewBox="0 0 16 16">
            <path fill="#F4F4FD" d="M10.66 2.66h1.47V.1C11.87.08 11 0 10 0 7.9 0 6.45 1.32 6.45 3.76V6H4.12v2.84h2.33V16H9.3V8.84h2.23L11.88 6H9.3V4.04c0-.82.22-1.38 1.36-1.38Z"/>
        </symbol>
    <symbol id="twitter" viewBox="0 0 16 16">
        <path fill="#F4F4FD" d="M16 3.04c-.6.26-1.23.43-1.89.52.68-.4 1.2-1.05 1.44-1.82-.63.38-1.33.65-2.08.8a3.29 3.29 0 0 0-5.6 2.99A9.28 9.28 0 0 1 1.12 2.1a3.3 3.3 0 0 0 1.01 4.38 3.24 3.24 0 0 1-1.48-.4v.03a3.3 3.3 0 0 0 2.63 3.23 3.27 3.27 0 0 1-1.48.05 3.31 3.31 0 0 0 3.06 2.28A6.6 6.6 0 0 1 0 13.03a9.23 9.23 0 0 0 5.03 1.47c6.04 0 9.34-5 9.34-9.33l-.01-.43A6.54 6.54 0 0 0 16 3.04Z"/>
    </symbol

    <symbol id="icon-Vector-name-blue" viewBox="0 0 32 32">
<path fill="#4d5ae5" style="fill: var(--color1, #4d5ae5)" d="M16 16c4.418 0 8-3.582 8-8s-3.582-8-8-8v0c-4.418 0-8 3.582-8 8s3.582 8 8 8v0zM16 20c-5.339 0-16 2.68-16 8v2c0 1.099 0.901 2 2 2h28c1.099 0 2-0.901 2-2v-2c0-5.32-10.661-8-16-8z"></path>
</symbol>
<symbol id="icon-Vector-x" viewBox="0 0 32 32">
<path d="M32 3.224l-3.224-3.224-12.776 12.776-12.776-12.776-3.224 3.224 12.776 12.776-12.776 12.776 3.224 3.224 12.776-12.776 12.776 12.776 3.224-3.224-12.776-12.776 12.776-12.776z"></path>
</symbol>
<symbol id="icon-Vector-check" viewBox="0 0 40 32">
<path fill="#f4f4fd" style="fill: var(--color2, #f4f4fd)" d="M33.784 1.020c0.659-0.637 1.558-1.030 2.548-1.030 2.007 0 3.637 1.611 3.668 3.611l0 0.003c0.001 0.028 0.001 0.061 0.001 0.095 0 0.965-0.368 1.844-0.972 2.504l0.003-0.003-19.576 24.616c-0.674 0.728-1.635 1.182-2.702 1.182-0.495 0-0.967-0.098-1.398-0.275l0.024 0.009c-0.477-0.197-0.884-0.473-1.224-0.816l-0-0-12.984-13.052c-0.724-0.677-1.175-1.638-1.175-2.705 0-0.501 0.1-0.98 0.28-1.416l-0.009 0.025c0.564-1.367 1.887-2.312 3.43-2.312 0.018 0 0.035 0 0.053 0l-0.003-0c1.038 0.019 1.967 0.467 2.622 1.174l0.002 0.002 10.276 10.328 17.040-21.832c0.032-0.039 0.065-0.074 0.1-0.108l-0.004-0z"></path>
</symbol>

<symbol id="icon-Vector-name" viewBox="0 0 32 32">
<path d="M16 16c4.418 0 8-3.582 8-8s-3.582-8-8-8v0c-4.418 0-8 3.582-8 8s3.582 8 8 8v0zM16 20c-5.339 0-16 2.68-16 8v2c0 1.099 0.901 2 2 2h28c1.099 0
    </symbol>

<symbol id="icon-close" viewBox="0 0 8 8">
      <path d="M8 0.805714L7.19429 0L4 3.19429L0.805714 0L0 0.805714L3.19429 4L0 7.19429L0.805714 8L4 4.80571L7.19429 8L8 7.19429L4.80571 4L8 0.805714Z" />
    </symbol>
    
    <symbol id="icon-send-subscribe" viewBox="0 0 38 32">
<path fill="#fff" style="fill: var(--color1, #fff)" d="M38.4 0l-38.4 18 12.272 3.787 18.928-14.787-14.397 16.186 0.011 0.005-0.014-0.005v8.814l6.882-6.691 8.72 2.691 5.998-28z"></path>
</symbol>


   
    </defs>
</svg>